<?xml version="1.0" encoding="utf-8"?>
<!-- Generator: Adobe Illustrator 27.5.0, SVG Export Plug-In . SVG Version: 6.00 Build 0)  -->
<svg version="1.1" id="Layer_1" xmlns="http://www.w3.org/2000/svg" xmlns:xlink="http://www.w3.org/1999/xlink" x="0px" y="0px"
	 viewBox="0 0 5000 5000" style="enable-background:new 0 0 5000 5000;" xml:space="preserve">
<rect style="fill:transparent;" width="5000" height="5000"/>
<ellipse style="opacity:0.14;fill:#0A2F35;" cx="2500" cy="4124.271" rx="1822.172" ry="120.521"/>
<g>
	<path style="opacity:0.49;fill:#FFCFE3;" d="M3398.699,765.292c-125.806-49.619-286.459,89.69-369.954,290.234
		c-83.496,200.542-141.713,641.216-141.713,641.216s0.328-0.192,0.573-0.323c-31.622,64.913-61.32,130.633-89.344,197.031
		c14.693-91.738,22.113-192.302,12.112-290.092c-22.044-215.633-147.446-445.727-277.176-407.554
		c-129.734,38.172-170.854,246.792-113.477,456.299c46.554,169.957,203.305,454.311,260.849,555.633
		c-48.148,147.911-87.187,298.713-117.35,451.64c4.117-130.188-3.965-312.084-61.156-473.259
		c-72.478-204.278-248.798-398.143-365.799-330.327c-117.002,67.815-107.552,280.227-2.192,470.2
		c91.9,165.704,338.891,429.696,400.514,494.459c-19.705,128.439-33.017,258.213-39.562,388.997
		c-4.004,79.953-6.146,161.545-5.682,243.7c-26.095-119.097-90.556-352.52-222.545-528.869
		c-129.863-173.542-355.798-306.299-447.387-206.819c-91.582,99.502-19.483,299.54,137.527,449.646
		c139.666,133.53,463.473,316.638,533.453,355.548c4.811,192.566,25.72,386.612,74.897,568.622
		c4.724,17.484,32.905,13.644,28.138-3.99c-12.333-45.674-22.687-92.11-31.566-139.019
		c67.376-28.998,346.839-157.723,519.471-365.006c138.705-166.572,215.48-417.114,97.471-483.144
		c-118.01-66.027-295.888,50.479-405.504,238.014c-90.824,155.359-186.472,476.146-216.646,581.704
		c-38.807-221.98-42.711-454.399-34.691-675.609c55.226-23.361,347.048-153.533,525.179-367.44
		c138.706-166.569,215.481-417.112,97.472-483.142c-118.01-66.027-295.888,50.479-405.505,238.014
		c-89.522,153.148-183.778,467.105-215.347,577.168c13.043-288.223,60.429-572.622,138.785-848.231
		c82.562-1.946,380.605-17.652,613.014-141.07c191.438-101.65,357.335-304.482,273.105-410.286
		c-84.232-105.78-292.978-65.291-465.422,66.795c-134.482,103.005-328.502,340.13-407.462,439.596
		c7.528-25.3,15.215-50.547,23.253-75.705c1.892,3.271,2.967,5.102,2.967,5.102s32.335-77.59,62.411-192.181
		c49.264-130.748,105.468-258.915,168.269-384.019c93.434-59.734,308.543-211.197,434.209-411.683
		C3482.01,1073.488,3524.501,814.91,3398.699,765.292z"/>
	<g style="opacity:0.49;">
		<g>
			<path style="fill:#4D67AA;" d="M4482.192,1659.687c-50.629-41.434-168.154-37.493-239.104-14.783
				c-182.378,57.612-295.698,176.875-501.21,213.703c-40.637,7.496-83.052,11.404-122.125,22.295
				c-65.445,18.221-114.573,54.392-148.515,92.767c-68.203,77.55-85.598,164.034-122.997,248.668
				c-37.55,84.952-103.087,178.018-212.307,231.855c-52.984,26.056-113.266,40.818-161.224,73.907
				c-99.829,69.288-101.139,180.417-93.858,271.494c6.984,91.736,3.661,204.369-77.63,276.978
				c-22.023,19.679-48.207,34.38-68.275,56.038c-48.374,52.269-46.237,126.136-38.625,189.268
				c27.647,231.999,87.232,461.014,172.294,683.022c6.727,17.613,14.444,36.234,27.367,46.739
				c16.622,13.502,36.308,9.7,53.775,5.642c44.086-10.289,87.721-19.25,130.848-26.976c23.309-4.176,47.511-8.707,64.735-28.471
				c18.627-21.371,25.893-56.267,33.024-89.141c31.228-144.934,74.618-288.8,128.704-429.353
				c32.89-86.975,73.097-179.4,59.906-262.696c-7.019-43.679-29.984-81.395-33.276-126.07
				c-14.879-170.28,256.284-287.434,345.381-435.347c57.268-97.808,11.791-203.57,78.979-297.747
				c77.821-110.53,308.408-163.797,335.704-267.551c8.668-35.129-10.295-70.49-6.783-105.884
				c9.67-111.485,229.652-168.954,360.875-238.734C4489.05,1726.255,4521.615,1691.805,4482.192,1659.687z"/>
		</g>
		<g>
			<g>
				<path style="fill:#D6DDE5;" d="M3048.03,3941.455c-0.319,0.201-0.659,0.364-1.015,0.481c-2.643,0.887-5.372-0.857-6.08-3.913
					c-20.041-86.066-36.704-172.371-49.998-258.723c-8.555-55.908-17.145-119.564,1.666-181.427
					c7.862-25.776,20.386-50.655,33.022-74.489c7.855-14.849,16.178-30.106,23.534-45.232c45.711-94.635,59.67-198.54,26.65-282.3
					c-3.607-9.079-7.864-18.151-11.977-26.924c-9.412-20.083-19.23-40.857-22.266-63.903
					c-11.618-83.974,69.99-173.193,158.691-242.187c1.072-0.844,2.145-1.687,3.219-2.529
					c82.45-65.47,182.669-132.209,207.988-207.888c6.659-20.297,7.426-40.881,8.224-60.79c0.759-18.613,1.596-37.851,7.634-57.075
					c19.896-64.14,94.749-119.635,171.254-168.695c82.753-53.7,165.463-99.055,187.772-158.955
					c5.244-14.181,6.588-28.935,7.904-43.194c0.899-9.831,1.85-19.995,4.139-29.994c21.344-96.56,162.255-172.437,328.957-229.685
					c3.946-1.369,10.022-0.773,13.563,1.315c3.551,2.098,3.218,4.887-0.725,6.242c-163.986,55.842-302.763,129.71-323.937,223.028
					c-2.246,9.667-3.235,19.647-4.186,29.302c-1.418,14.569-2.866,29.638-8.422,44.439
					c-23.774,62.529-112.198,110.949-193.051,163.321c-74.902,47.81-148.239,101.824-167.563,163.062
					c-5.846,18.359-6.769,37.154-7.598,55.33c-0.917,20.349-1.809,41.395-8.882,62.612
					c-26.885,79.125-129.303,147.011-213.502,213.767c-1.073,0.84-2.144,1.68-3.214,2.521
					c-86.002,66.813-165.382,152.801-154.749,232.417c2.763,21.836,12.206,42.078,21.279,61.654
					c4.12,8.876,8.361,18.064,12.016,27.344c33.59,86.444,18.682,193.413-28.537,290.818c-7.541,15.436-15.965,30.843-23.916,45.819
					c-12.4,23.338-24.705,47.697-32.319,72.477c-18.238,59.479-10.085,121.885-1.92,176.733
					c12.916,86.285,29.197,172.537,48.856,258.565C3051.146,3937.44,3050.047,3940.186,3048.03,3941.455z"/>
			</g>
			<g>
				<path style="fill:#D6DDE5;" d="M3167.549,2797.281c-3.635,0.87-7.014-0.322-7.737-2.826
					c-8.227-28.488,1.288-60.136,11.243-90.487c8.298-25.527,17.398-51.736,15.349-75.62c-1.829-21.17-12.522-42.329-33.3-64.622
					c-2.019-2.162-0.596-5.479,3.22-7.412c3.729-1.938,8.525-1.742,10.523,0.443c21.764,23.506,32.907,45.968,34.757,68.6
					c2.036,25.4-7.452,52.358-16.111,78.614c-10.129,30.534-19.01,59.611-11.522,86.062c0.759,2.673-1.796,5.824-5.699,7.042
					C3168.029,2797.159,3167.786,2797.224,3167.549,2797.281z"/>
			</g>
			<g>
				<path style="fill:#D6DDE5;" d="M3537.746,2311.98c-1.246,0.081-2.514-0.004-3.692-0.275c-4.032-0.926-5.537-3.705-3.348-6.216
					c44.986-51.508,69.544-105.833,67.998-159.409c-0.555-18.669-4.302-37.779-7.97-56.265
					c-8.143-41.531-17.129-84.748,12.17-126.056c1.762-2.492,7.03-3.947,11.842-3.204c4.742,0.73,7.137,3.35,5.335,5.843
					c-27.946,39.025-19.795,79.226-11.708,121.53c3.621,18.67,7.315,37.974,7.767,57.044c1.317,55.169-24.292,110.998-70.82,163.89
					C3543.765,2310.631,3540.787,2311.783,3537.746,2311.98z"/>
			</g>
			<g>
				<path style="fill:#D6DDE5;" d="M3757.877,2167.886c-1.618-0.016-3.231-0.275-4.61-0.802c-3.791-1.447-4.519-4.339-1.608-6.466
					c34.418-25.161,86.427-39.793,137.237-52.502c46.842-11.788,95.754-22.701,130.637-40.95c3.316-1.733,8.947-1.706,12.596,0.09
					c3.623,1.793,3.852,4.649,0.527,6.381c-37.339,19.4-87.811,30.592-136.154,42.717c-51.192,12.786-99.04,26.245-131.095,49.503
					C3763.557,2167.201,3760.698,2167.911,3757.877,2167.886z"/>
			</g>
			<g>
				<path style="fill:#D6DDE5;" d="M3050.906,3010.883c-0.361,0.115-0.732,0.224-1.101,0.309c-3.822,0.911-7.263,0.104-8.98-2.112
					c-2.578-3.33-1.501-7.904,3.28-13.587c56.964-67.765,140.141-119.588,223.244-165.091c13.853-7.599,27.774-15.073,41.651-22.482
					c92.102-49.586,197.503-103.648,260.38-172.968c2.238-2.476,6.854-3.617,10.343-2.532c3.465,1.088,4.456,3.975,2.213,6.445
					c-65.156,71.415-172.556,126.497-266.267,176.977c-13.878,7.416-27.794,14.895-41.652,22.503
					c-80.891,44.316-161.849,94.68-217.321,159.49c0.109,0.056,0.219,0.12,0.33,0.184c2.323,1.469,3.03,3.992,1.845,6.61
					C3057.645,3007.315,3054.535,3009.73,3050.906,3010.883z"/>
			</g>
			<g>
				<path style="fill:#D6DDE5;" d="M3047.899,3400.45c-0.458,0.192-0.943,0.335-1.449,0.435c-3.272,0.595-5.957-1.394-6.003-4.454
					c-0.692-48.887-23.3-94.786-75.513-143.848c-12.15-11.395-25.254-22.508-38.027-33.215
					c-31.015-26.038-63.85-52.673-87.711-85.805c-1.718-2.378-0.459-6.029,2.797-8.136c3.309-2.11,7.289-1.887,8.979,0.492
					c23.037,32.265,55.275,58.628,85.744,84.394c12.806,10.795,25.935,22.008,38.173,33.568
					c53.813,50.944,76.905,98.933,77.428,150.388C3052.336,3396.854,3050.463,3399.372,3047.899,3400.45z"/>
			</g>
			<g>
				<path style="fill:#D6DDE5;" d="M2999.156,3699.349c-0.122,0.066-0.245,0.123-0.378,0.185c-2.838,1.291-5.879-0.024-6.794-2.933
					c-7.382-23.513,3.542-51.646,34.89-84.633c20.622-21.688,43.127-42.44,65.334-62.084
					c54.721-48.468,113.674-95.691,159.615-152.782c8.425-10.477,17.738-22.872,22.108-36.048c0.978-2.961,4.275-5.072,7.337-4.652
					c3.069,0.393,4.744,3.12,3.746,6.077c-5.075,15.151-15.291,28.781-24.483,40.211
					c-47.064,58.463-106.528,106.201-161.718,155.205c-21.986,19.508-44.279,40.112-64.6,61.532
					c-27.782,29.304-37.818,53.369-31.913,72.512C3003.158,3694.712,3001.757,3697.944,2999.156,3699.349z"/>
			</g>
		</g>
	</g>
	<path style="opacity:0.49;fill:#BCEDED;" d="M2386.675,3533.273c-33.64-67.137-68.395-133.345-103.911-198.456
		c-36.555-66.997-74.835-132.943-114.563-197.81c32.722-124.044,182.739-399.61,176.193-590.233
		c-7.284-211.313-301.593-560.295-301.593-560.295c68.007,126.343,38.587,350.439-0.722,601.091
		c-24.174,154.176,26.733,339.622,69.535,459.624c-74.343-114.828-154.075-225.272-239.456-329.978
		c-12.793-170.919,49.284-504.201-4.574-683.102c-61.395-204.01-287.891-427.01-287.891-427.01
		c99.156,157.255,98.685,525.033,118.144,732.013c9.051,96.233,49.607,198.004,90.391,279.378
		c-94.992-107.489-196.484-207.873-305.153-299.078c0.046-0.011,0.329,0.033,0.329,0.033
		c-71.817-177.384-232.347-378.798-466.023-417.258C783.741,1863.705,500,1768.179,500,1768.179
		c205.31,403.841,748.817,517.158,926.228,543.892c100.643,81.319,195.146,170.361,283.948,265.817
		c-97.738-57.707-262.297-139.602-397.925-131.321c-207.446,12.639-382.665,20.605-444.262-49.236
		c0,0,383.775,539.634,903.3,248.149c123.323,140.649,235.488,293.33,337.749,454.127
		c-87.169-63.581-402.779-261.405-809.92-134.576c0,0,393.144,282.637,823.53,156.19c52.312,83.267,102.115,168.55,149.493,255.355
		c36.458,66.817,71.909,135.041,106.114,204.34c-86.165-54.759-281.604-165.666-438.414-156.107
		c-207.447,12.637-382.667,20.604-444.244-49.249c0,0,383.881,539.781,903.506,248.045
		c75.527,156.885,143.377,319.797,196.538,488.607c5.218,16.555,31.482,5.781,26.233-10.875
		c-56.464-179.395-129.374-351.462-210.219-517.307c244.464-267.891,167.767-561.393,115.471-711.252
		c-53.525-153.4-47.461-303.974-47.461-303.974C2345.946,2901.023,2371.007,3360.489,2386.675,3533.273z"/>
</g>
<g>
	<path style="fill:#363364;" d="M3614.283,1903.411v2057.155c0,46.404-16.96,86.588-50.881,120.531
		c-33.943,33.92-74.127,50.903-120.552,50.903h-1885.7c-46.448,0-86.61-16.982-120.53-50.903
		c-33.943-33.943-50.903-74.127-50.903-120.531V1903.411c0-46.404,16.96-86.588,50.903-120.53
		c33.921-33.921,74.083-50.881,120.53-50.881h1885.7c46.426,0,86.61,16.96,120.552,50.881
		C3597.323,1816.823,3614.283,1857.008,3614.283,1903.411z"/>
	<path style="fill:#D9FFFE;" d="M3442.85,2331.994V1989.15c0-23.202-8.491-43.294-25.429-60.276
		c-16.982-16.938-37.074-25.451-60.276-25.451H1642.856c-23.224,0-43.316,8.513-60.254,25.451
		c-16.982,16.982-25.452,37.074-25.452,60.276v342.844c0,23.246,8.469,43.316,25.452,60.276
		c16.938,16.96,37.03,25.451,60.254,25.451h1714.289c23.202,0,43.294-8.491,60.276-25.451
		C3434.359,2375.311,3442.85,2355.24,3442.85,2331.994z"/>
	<path style="fill:#ED8AC5;" d="M1849.775,2881.77c33.479-33.479,50.219-73.862,50.219-121.214
		c0-47.308-16.74-87.713-50.219-121.192c-33.479-33.479-73.884-50.241-121.192-50.241c-47.352,0-87.735,16.762-121.214,50.241
		c-33.479,33.479-50.219,73.884-50.219,121.192c0,47.352,16.74,87.735,50.219,121.214c33.479,33.479,73.862,50.219,121.214,50.219
		C1775.891,2931.989,1816.296,2915.249,1849.775,2881.77z"/>
	<path style="fill:#ED8AC5;" d="M1849.775,3396.048c33.479-33.479,50.219-73.862,50.219-121.192
		c0-47.33-16.74-87.735-50.219-121.214c-33.479-33.479-73.884-50.219-121.192-50.219c-47.352,0-87.735,16.74-121.214,50.219
		c-33.479,33.479-50.219,73.884-50.219,121.214c0,47.33,16.74,87.713,50.219,121.192c33.479,33.479,73.862,50.219,121.214,50.219
		C1775.891,3446.267,1816.296,3429.527,1849.775,3396.048z"/>
	<path style="fill:#ED8AC5;" d="M1849.775,3910.347c33.479-33.501,50.219-73.906,50.219-121.214
		c0-47.308-16.74-87.712-50.219-121.214c-33.479-33.479-73.884-50.219-121.192-50.219c-47.352,0-87.735,16.74-121.214,50.219
		c-33.479,33.502-50.219,73.906-50.219,121.214c0,47.308,16.74,87.713,50.219,121.214c33.479,33.479,73.862,50.219,121.214,50.219
		C1775.891,3960.567,1816.296,3943.827,1849.775,3910.347z"/>
	<path style="fill:#ED8AC5;" d="M2364.075,2881.781c33.479-33.479,50.219-73.862,50.219-121.214
		c0-47.308-16.74-87.713-50.219-121.192c-33.501-33.479-73.906-50.241-121.214-50.241c-47.33,0-87.735,16.762-121.214,50.241
		c-33.479,33.479-50.219,73.884-50.219,121.192c0,47.352,16.74,87.735,50.219,121.214S2195.531,2932,2242.861,2932
		C2290.169,2932,2330.574,2915.26,2364.075,2881.781z"/>
	<path style="fill:#ED8AC5;" d="M2364.075,3396.048c33.479-33.479,50.219-73.862,50.219-121.192
		c0-47.33-16.74-87.735-50.219-121.214c-33.501-33.479-73.906-50.219-121.214-50.219c-47.33,0-87.735,16.74-121.214,50.219
		c-33.479,33.479-50.219,73.884-50.219,121.214c0,47.33,16.74,87.713,50.219,121.192s73.884,50.219,121.214,50.219
		C2290.169,3446.267,2330.574,3429.527,2364.075,3396.048z"/>
	<path style="fill:#ED8AC5;" d="M2364.075,3910.347c33.479-33.501,50.219-73.906,50.219-121.214
		c0-47.308-16.74-87.712-50.219-121.214c-33.501-33.479-73.906-50.219-121.214-50.219c-47.33,0-87.735,16.74-121.214,50.219
		c-33.479,33.502-50.219,73.906-50.219,121.214c0,47.308,16.74,87.713,50.219,121.214c33.479,33.479,73.884,50.219,121.214,50.219
		C2290.169,3960.567,2330.574,3943.827,2364.075,3910.347z"/>
	<path style="fill:#ED8AC5;" d="M2878.353,2881.781c33.479-33.479,50.219-73.862,50.219-121.214
		c0-47.308-16.74-87.713-50.219-121.192c-33.479-33.479-73.884-50.241-121.214-50.241s-87.713,16.762-121.192,50.241
		c-33.479,33.479-50.219,73.884-50.219,121.192c0,47.352,16.74,87.735,50.219,121.214S2709.809,2932,2757.139,2932
		S2844.874,2915.26,2878.353,2881.781z"/>
	<path style="fill:#ED8AC5;" d="M2878.353,3396.048c33.479-33.479,50.219-73.862,50.219-121.192
		c0-47.33-16.74-87.735-50.219-121.214c-33.479-33.479-73.884-50.219-121.214-50.219s-87.713,16.74-121.192,50.219
		c-33.479,33.479-50.219,73.884-50.219,121.214c0,47.33,16.74,87.713,50.219,121.192s73.862,50.219,121.192,50.219
		S2844.874,3429.527,2878.353,3396.048z"/>
	<path style="fill:#ED8AC5;" d="M2878.353,3910.347c33.479-33.501,50.219-73.906,50.219-121.214
		c0-47.308-16.74-87.712-50.219-121.214c-33.479-33.479-73.884-50.219-121.214-50.219s-87.713,16.74-121.192,50.219
		c-33.479,33.502-50.219,73.906-50.219,121.214c0,47.308,16.74,87.713,50.219,121.214c33.479,33.479,73.862,50.219,121.192,50.219
		S2844.874,3943.827,2878.353,3910.347z"/>
	<path style="fill:#ED8AC5;" d="M3392.631,2881.781c33.479-33.479,50.219-73.862,50.219-121.214
		c0-47.308-16.74-87.713-50.219-121.192c-33.479-33.479-73.884-50.241-121.192-50.241c-47.352,0-87.735,16.762-121.214,50.241
		c-33.479,33.479-50.219,73.884-50.219,121.192c0,47.352,16.74,87.735,50.219,121.214S3224.087,2932,3271.439,2932
		C3318.747,2932,3359.151,2915.26,3392.631,2881.781z"/>
	<path style="fill:#ED8AC5;" d="M3442.85,3789.145v-514.278c0-46.426-16.96-86.61-50.881-120.552
		c-33.943-33.921-74.127-50.881-120.531-50.881c-46.448,0-86.632,16.96-120.552,50.881c-33.942,33.943-50.881,74.127-50.881,120.552
		v514.278c0,46.404,16.938,86.588,50.881,120.53c33.921,33.921,74.105,50.903,120.552,50.903c46.404,0,86.588-16.982,120.531-50.903
		C3425.89,3875.732,3442.85,3835.548,3442.85,3789.145z"/>
</g>
<g>
	<g>
		<g>
			<g>
				<path style="fill:#EE85AA;" d="M3891.381,3636.941c-0.224,1.523-0.448,3.047-0.694,4.541
					c-2.167,13.844-4.922,27.627-8.264,41.35c-12.351,50.605-32.848,100.168-61.844,146.845l-71.304,114.715l-39.191,63.075
					l-52.576,84.58l-11.796,18.989c-3.848-2.408-7.667-4.837-11.445-7.365c-36.681-24.126-69.211-52.312-97.373-83.563
					c-10.191-11.305-19.78-22.988-28.799-35.029c-39.911-53.291-68.473-113.55-84.776-176.906c-2.5-9.628-4.676-19.339-6.583-29.113
					c-15.805-80.663-12.04-165.293,13.098-246.208c2.421-7.815,5.045-15.599,7.844-23.333c11.76-32.146,26.945-63.581,45.738-93.809
					l21.168-34.03l12.176-19.634l129.761-208.753l11.788-18.939l0.055-0.018c3.847,2.408,7.641,4.834,11.394,7.358
					c38.928,25.599,73.185,55.802,102.512,89.352c5.418,6.193,10.636,12.512,15.707,18.939
					c42.753,54.073,73.472,115.894,91.132,181.136c2.383,8.833,4.549,17.738,6.445,26.706
					C3898.036,3516.291,3900.207,3576.972,3891.381,3636.941z"/>
			</g>
			<g>
				<path style="fill:#FFFFFF;" d="M3657.506,4092.048l-11.796,18.989c-3.848-2.408-7.667-4.837-11.445-7.365l0.602-47.977
					l0.332-24.464l1.483-116.353l0.33-25.683l2.426-187.262l0.375-29.334l2.662-205.255l0.335-26.954l3.708-287.096l11.788-18.939
					l0.055-0.018l11.394,7.358l-3.495,271.719l-0.612,46.99l-2.542,197.387l-0.429,33.943l-2.412,186.642l-0.436,33.631
					l-1.414,108.659l-0.391,30.499L3657.506,4092.048z"/>
			</g>
			<g>
				<path style="fill:#FFFFFF;" d="M3787.975,3249.986l-122.326,210.418l-3.13,5.402c-1.565,2.701-4.161,4.653-7.202,5.399
					c-1.482,0.378-2.996,0.441-4.469,0.224c-1.549-0.228-3.052-0.76-4.406-1.608l-3.967-2.477l-137.893-85.662l12.176-19.634
					l126.052,78.342l5.705,3.537l17.745-30.513l106.007-182.367C3777.685,3237.24,3782.903,3243.559,3787.975,3249.986z"/>
			</g>
			<g>
				<path style="fill:#FFFFFF;" d="M3885.552,3457.828l-222.875,233.906l-8.283,8.69c-2.694,2.794-6.448,3.979-10.053,3.449
					c-1.726-0.254-3.422-0.893-4.902-1.941c-0.214-0.135-0.445-0.325-0.655-0.485l-208.952-168.594
					c2.421-7.815,5.045-15.599,7.844-23.333l202.138,163.078l5.194,4.188l18.1-18.995l216-226.669
					C3881.49,3439.955,3883.655,3448.86,3885.552,3457.828z"/>
			</g>
			<g>
				<path style="fill:#FFFFFF;" d="M3890.687,3641.482c-2.167,13.844-4.922,27.627-8.264,41.35l-222.594,229.175l-3.547,3.654
					c-2.628,2.7-6.361,3.915-9.966,3.384c-1.193-0.176-2.357-0.554-3.494-1.111l-6.139-3.057l-213.366-106.704
					c-2.5-9.628-4.676-19.339-6.583-29.113l220.28,110.135l8.576,4.297l14.676-15.116l228.74-235.507
					C3889.525,3642.323,3890.09,3641.835,3890.687,3641.482z"/>
			</g>
			<g>
				<path style="fill:#FFFFFF;" d="M3749.274,3944.393l-39.191,63.075l-52.059,43.698l-5.653,4.745
					c-2.546,2.142-5.871,3.053-9.095,2.578c-0.762-0.112-1.512-0.3-2.251-0.565l-6.157-2.229l-97.975-35.586
					c-10.191-11.305-19.78-22.988-28.799-35.029l127.107,46.151l7.436,2.703l15.779-13.267L3749.274,3944.393z"/>
			</g>
		</g>
		<g>
			<g>
				<path style="fill:#A3D7D8;" d="M3984.129,3981.446c-0.849,0.639-1.698,1.278-2.543,1.892
					c-7.778,5.744-15.815,11.172-24.111,16.286c-30.606,18.846-64.704,33.228-101.574,42.073l-90.633,21.716l-49.826,11.948
					l-66.826,16.01l-14.999,3.599c-0.721-3.048-1.416-6.093-2.045-9.166c-6.3-29.632-8.595-59.242-7.259-88.238
					c0.481-10.491,1.442-20.876,2.855-31.159c6.26-45.511,21.468-88.938,44.196-127.939c3.443-5.938,7.084-11.759,10.889-17.481
					c31.366-47.253,74.261-86.962,125.843-114.48c4.979-2.661,10.042-5.209,15.166-7.647c21.363-10.072,44.061-18.135,67.946-23.856
					l26.894-6.434l15.498-3.73l164.932-39.516l14.971-3.577l0.036,0.018c0.72,3.048,1.405,6.078,2.023,9.137
					c6.689,31.444,8.853,62.882,6.974,93.572c-0.345,5.667-0.849,11.299-1.477,16.913c-5.244,47.273-20.152,92.513-43.128,133.098
					c-3.115,5.491-6.371,10.911-9.79,16.233C4045.912,3925.461,4017.546,3956.295,3984.129,3981.446z"/>
			</g>
			<g>
				<path style="fill:#FFFFFF;" d="M3648.616,4091.369l-14.999,3.599c-0.721-3.048-1.416-6.093-2.045-9.166l23.565-23.254
					l12.028-11.845l57.161-56.384l12.619-12.445l92.015-90.728l14.411-14.215l100.858-99.444l13.237-13.066l141.065-139.101
					l14.971-3.577l0.036,0.018l2.023,9.137l-133.503,131.658l-23.091,22.765l-96.983,95.641l-16.674,16.45l-91.708,90.43
					l-16.526,16.294l-53.395,52.642l-14.984,14.779L3648.616,4091.369z"/>
			</g>
			<g>
				<path style="fill:#FFFFFF;" d="M4121.058,3741.384l-162.091,43.938l-4.156,1.133c-2.078,0.566-4.299,0.265-6.153-0.843
					c-0.911-0.533-1.684-1.237-2.302-2.057c-0.65-0.863-1.129-1.854-1.383-2.927l-0.745-3.14l-26.127-108.921l15.498-3.73
					l23.867,99.585l1.084,4.503l23.508-6.368l140.476-38.087C4122.19,3730.138,4121.686,3735.77,4121.058,3741.384z"/>
			</g>
			<g>
				<path style="fill:#FFFFFF;" d="M4068.14,3890.714l-222.83,6.698l-8.28,0.247c-2.677,0.065-5.095-1.174-6.607-3.183
					c-0.724-0.962-1.246-2.098-1.465-3.33c-0.039-0.17-0.061-0.375-0.086-0.556l-20.778-184.087
					c4.979-2.661,10.042-5.209,15.166-7.647l20.109,178.074l0.518,4.575l18.096-0.544l215.946-6.481
					C4074.815,3879.972,4071.559,3885.393,4068.14,3890.714z"/>
			</g>
			<g>
				<path style="fill:#FFFFFF;" d="M3981.585,3983.338c-7.778,5.744-15.815,11.172-24.111,16.286l-220.397,4.513l-3.513,0.073
					c-2.599,0.051-5.02-1.164-6.532-3.173c-0.5-0.665-0.888-1.415-1.176-2.24l-1.531-4.477l-52.962-155.854
					c3.443-5.938,7.084-11.759,10.889-17.481l54.691,160.89l2.125,6.268l14.534-0.3l226.484-4.64
					C3980.608,3983.188,3981.121,3983.222,3981.585,3983.338z"/>
			</g>
			<g>
				<path style="fill:#FFFFFF;" d="M3765.268,4063.412l-49.826,11.948l-46.743-3.803l-5.075-0.413
					c-2.288-0.184-4.362-1.349-5.714-3.146c-0.32-0.424-0.596-0.881-0.831-1.369l-1.941-4.08l-30.824-64.984
					c0.481-10.491,1.442-20.876,2.855-31.159l39.997,84.298l2.339,4.933l14.179,1.142L3765.268,4063.412z"/>
			</g>
		</g>
		<g>
			<g>
				<path style="fill:#3E65A0;" d="M3492.837,3703.7c0.781,0.995,1.563,1.99,2.315,2.981c7.029,9.118,13.689,18.552,19.981,28.303
					c23.189,35.972,41.15,76.211,52.587,119.886l28.083,107.363l15.449,59.024l20.704,79.161l4.653,17.768
					c-3.611,0.933-7.218,1.836-10.861,2.66c-35.121,8.23-70.315,11.69-104.868,10.813c-12.501-0.315-24.888-1.203-37.165-2.632
					c-54.335-6.332-106.407-23.369-153.398-49.466c-7.154-3.953-14.173-8.145-21.079-12.533
					c-57.026-36.177-105.354-86.266-139.384-146.996c-3.291-5.861-6.448-11.827-9.477-17.867
					c-12.517-25.185-22.674-52.008-30.072-80.302l-8.322-31.858l-4.823-18.359l-51.102-195.376l-4.627-17.735l0.02-0.043
					c3.611-0.932,7.202-1.823,10.828-2.634c37.269-8.738,74.642-12.086,111.224-10.605c6.755,0.271,13.472,0.732,20.171,1.342
					c56.407,5.079,110.631,21.714,159.512,48.068c6.613,3.573,13.146,7.315,19.566,11.255
					C3424.668,3631.526,3462.073,3664.536,3492.837,3703.7z"/>
			</g>
			<g>
				<path style="fill:#FFFFFF;" d="M3631.956,4100.418l4.653,17.768c-3.611,0.933-7.218,1.836-10.861,2.66l-28.263-27.482
					l-14.397-14.028l-68.531-66.661l-15.126-14.716l-110.274-107.31l-17.277-16.807L3251.01,3756.22l-15.88-15.437l-169.07-164.513
					l-4.627-17.735l0.02-0.043l10.828-2.634l160.023,155.693l27.669,26.929l116.246,113.103l19.994,19.445l109.912,106.951
					l19.804,19.272l63.983,62.271l17.963,17.475L3631.956,4100.418z"/>
			</g>
			<g>
				<path style="fill:#FFFFFF;" d="M3203.676,3546.596l56.297,191.885l1.451,4.92c0.726,2.459,0.422,5.111-0.852,7.346
					c-0.613,1.098-1.431,2.035-2.393,2.791c-1.012,0.795-2.179,1.39-3.45,1.718l-3.72,0.965l-129.026,33.785l-4.823-18.359
					l117.968-30.864l5.334-1.402l-8.16-27.83l-48.799-166.298C3190.26,3545.525,3196.977,3545.986,3203.676,3546.596z"/>
			</g>
			<g>
				<path style="fill:#FFFFFF;" d="M3382.755,3605.919l13.458,265.111l0.498,9.851c0.143,3.186-1.273,6.094-3.627,7.943
					c-1.127,0.886-2.467,1.536-3.928,1.826c-0.201,0.051-0.445,0.082-0.66,0.116l-218.641,29.267
					c-3.291-5.861-6.448-11.827-9.477-17.867l211.5-28.323l5.433-0.729l-1.093-21.53l-13.03-256.921
					C3369.802,3598.236,3376.335,3601.979,3382.755,3605.919z"/>
			</g>
			<g>
				<path style="fill:#FFFFFF;" d="M3495.152,3706.681c7.029,9.118,13.689,18.552,19.981,28.303l10.796,262.268l0.173,4.181
					c0.124,3.093-1.262,6.005-3.616,7.854c-0.779,0.612-1.663,1.092-2.637,1.455l-5.293,1.932l-184.238,66.886
					c-7.154-3.953-14.173-8.145-21.079-12.533l190.191-69.069l7.41-2.684l-0.715-17.295l-11.097-269.512
					C3494.997,3707.849,3495.025,3707.237,3495.152,3706.681z"/>
			</g>
			<g>
				<path style="fill:#FFFFFF;" d="M3595.803,3962.234l15.449,59.024l-3.377,55.741l-0.367,6.052
					c-0.163,2.729-1.499,5.226-3.604,6.88c-0.498,0.391-1.034,0.732-1.609,1.023l-4.81,2.41l-76.604,38.295
					c-12.501-0.315-24.888-1.203-37.165-2.632l99.372-49.691l5.815-2.906l1.01-16.907L3595.803,3962.234z"/>
			</g>
		</g>
	</g>
	<g>
		<g>
			<g>
				<path style="fill:#A3D7D8;" d="M1757.113,3755.034c-0.532,1.218-1.064,2.436-1.608,3.624
					c-4.943,11.038-10.361,21.892-16.256,32.563c-21.757,39.344-50.062,75.972-84.79,108.272l-85.385,79.37l-46.936,43.644
					l-62.958,58.519l-14.128,13.14c-2.659-2.878-5.288-5.767-7.862-8.728c-25.078-28.407-45.78-59.253-62.149-91.663
					c-5.924-11.725-11.262-23.628-16.043-35.7c-21.157-53.427-31.283-110.084-30.499-166.543c0.101-8.585,0.49-17.165,1.117-25.738
					c5.122-70.758,27.443-140.384,66.719-202.07c3.788-5.959,7.737-11.847,11.821-17.653c17.081-24.105,36.852-46.841,59.355-67.755
					l25.343-23.541l14.59-13.591l155.384-144.433l14.11-13.1l0.05-0.003c2.658,2.877,5.268,5.758,7.821,8.71
					c26.616,30.143,48.298,63.061,65.117,97.649c3.108,6.385,6.021,12.831,8.787,19.333
					c23.347,54.722,34.915,113.169,34.833,171.506c-0.018,7.896-0.233,15.803-0.686,23.702
					C1790.004,3656.066,1778.057,3707.093,1757.113,3755.034z"/>
			</g>
			<g>
				<path style="fill:#FFFFFF;" d="M1459.18,4081.025l-14.128,13.14c-2.659-2.878-5.288-5.767-7.862-8.728l11.377-39.818
					l5.822-20.298l27.61-96.561l6.097-21.314l44.469-155.4l6.961-24.344l48.745-170.331l6.389-22.371l68.168-238.249l14.11-13.1
					l0.05-0.003l7.821,8.71l-64.504,225.492l-11.162,38.994l-46.861,163.805l-8.052,28.17l-44.317,154.886l-7.987,27.908
					l-25.809,90.169l-7.239,25.311L1459.18,4081.025z"/>
			</g>
			<g>
				<path style="fill:#FFFFFF;" d="M1758.714,3409.342l-149.57,147.504l-3.831,3.789c-1.915,1.895-4.52,2.932-7.221,2.864
					c-1.32-0.021-2.595-0.312-3.772-0.826c-1.238-0.541-2.37-1.325-3.305-2.338l-2.742-2.962l-95.417-102.596l14.59-13.591
					l87.216,93.816l3.949,4.239l21.695-21.388l129.621-127.843C1753.034,3396.394,1755.947,3402.839,1758.714,3409.342z"/>
			</g>
			<g>
				<path style="fill:#FFFFFF;" d="M1792.86,3604.549l-238.63,144.272l-8.868,5.359c-2.877,1.716-6.272,1.853-9.154,0.593
					c-1.38-0.603-2.647-1.519-3.643-2.727c-0.147-0.161-0.297-0.371-0.435-0.553l-135.795-187.769
					c3.788-5.959,7.737-11.847,11.821-17.653l131.371,181.631l3.376,4.665l19.379-11.716l231.264-139.804
					C1793.529,3588.744,1793.314,3596.65,1792.86,3604.549z"/>
			</g>
			<g>
				<path style="fill:#FFFFFF;" d="M1755.505,3758.658c-4.943,11.038-10.361,21.892-16.256,32.563l-237.323,140.396l-3.782,2.239
					c-2.801,1.653-6.184,1.818-9.066,0.559c-0.954-0.417-1.837-0.996-2.658-1.717l-4.42-3.937l-153.5-137.229
					c0.101-8.585,0.49-17.165,1.117-25.738l158.48,141.652l6.168,5.523l15.648-9.261l243.877-144.276
					C1754.348,3759.095,1754.928,3758.817,1755.505,3758.658z"/>
			</g>
			<g>
				<path style="fill:#FFFFFF;" d="M1569.074,3978.862l-46.936,43.644l-53.26,24.59l-5.783,2.67
					c-2.606,1.206-5.581,1.212-8.159,0.085c-0.609-0.266-1.191-0.593-1.747-0.981l-4.622-3.252l-73.526-51.845
					c-5.924-11.725-11.262-23.628-16.043-35.7l95.391,67.247l5.58,3.936l16.148-7.472L1569.074,3978.862z"/>
			</g>
		</g>
		<g>
			<g>
				<path style="fill:#3E65A0;" d="M1308.22,3679.38c0.781,0.995,1.563,1.99,2.315,2.981c7.029,9.118,13.689,18.552,19.981,28.303
					c23.189,35.972,41.15,76.211,52.587,119.886l28.083,107.363l15.449,59.024l20.704,79.161l4.653,17.768
					c-3.611,0.933-7.218,1.836-10.861,2.66c-35.121,8.23-70.315,11.69-104.868,10.813c-12.501-0.315-24.888-1.203-37.165-2.632
					c-54.335-6.332-106.407-23.369-153.398-49.466c-7.154-3.953-14.173-8.145-21.079-12.533
					c-57.026-36.177-105.354-86.266-139.384-146.997c-3.29-5.861-6.448-11.826-9.477-17.866
					c-12.517-25.185-22.674-52.008-30.072-80.302l-8.321-31.858l-4.823-18.359l-51.102-195.376l-4.627-17.735l0.02-0.043
					c3.611-0.932,7.202-1.823,10.828-2.634c37.269-8.738,74.642-12.086,111.224-10.605c6.755,0.271,13.472,0.732,20.171,1.342
					c56.408,5.079,110.631,21.714,159.512,48.068c6.613,3.573,13.147,7.315,19.566,11.255
					C1240.051,3607.206,1277.456,3640.215,1308.22,3679.38z"/>
			</g>
			<g>
				<path style="fill:#FFFFFF;" d="M1447.34,4076.098l4.653,17.768c-3.611,0.933-7.218,1.836-10.861,2.66l-28.263-27.481
					l-14.398-14.028l-68.531-66.661l-15.126-14.716l-110.274-107.31l-17.277-16.807l-120.869-117.623l-15.88-15.437l-169.07-164.513
					l-4.627-17.735l0.02-0.043l10.828-2.634l160.023,155.693l27.669,26.929l116.245,113.103l19.994,19.445l109.912,106.951
					l19.804,19.272l63.983,62.271l17.963,17.475L1447.34,4076.098z"/>
			</g>
			<g>
				<path style="fill:#FFFFFF;" d="M1019.06,3522.275l56.297,191.885l1.451,4.92c0.726,2.459,0.422,5.111-0.852,7.346
					c-0.613,1.098-1.431,2.035-2.393,2.791c-1.012,0.795-2.179,1.39-3.45,1.718l-3.72,0.965l-129.026,33.785l-4.823-18.359
					l117.968-30.864l5.334-1.402l-8.16-27.83l-48.799-166.298C1005.643,3521.204,1012.361,3521.665,1019.06,3522.275z"/>
			</g>
			<g>
				<path style="fill:#FFFFFF;" d="M1198.138,3581.598l13.458,265.111l0.498,9.851c0.143,3.186-1.273,6.094-3.627,7.943
					c-1.127,0.886-2.467,1.536-3.928,1.826c-0.201,0.051-0.445,0.082-0.66,0.116l-218.641,29.266
					c-3.29-5.861-6.448-11.826-9.477-17.866l211.5-28.323l5.433-0.729l-1.093-21.53l-13.03-256.921
					C1185.185,3573.916,1191.719,3577.658,1198.138,3581.598z"/>
			</g>
			<g>
				<path style="fill:#FFFFFF;" d="M1310.535,3682.361c7.029,9.118,13.689,18.552,19.981,28.303l10.796,262.268l0.173,4.181
					c0.124,3.093-1.262,6.005-3.616,7.854c-0.779,0.612-1.663,1.092-2.637,1.455l-5.293,1.932l-184.238,66.886
					c-7.154-3.953-14.173-8.145-21.079-12.533l190.191-69.069l7.41-2.684l-0.715-17.295l-11.097-269.512
					C1310.38,3683.528,1310.408,3682.916,1310.535,3682.361z"/>
			</g>
			<g>
				<path style="fill:#FFFFFF;" d="M1411.186,3937.913l15.449,59.024l-3.377,55.741l-0.367,6.052
					c-0.163,2.729-1.499,5.226-3.605,6.88c-0.498,0.391-1.034,0.732-1.609,1.023l-4.809,2.41l-76.604,38.295
					c-12.501-0.315-24.888-1.203-37.165-2.632l99.372-49.69l5.815-2.906l1.01-16.907L1411.186,3937.913z"/>
			</g>
		</g>
	</g>
</g>
</svg>
